<?xml version="1.0" encoding="UTF-8" standalone="no"?>
<svg
   xmlns:dc="http://purl.org/dc/elements/1.1/"
   xmlns:cc="http://creativecommons.org/ns#"
   xmlns:rdf="http://www.w3.org/1999/02/22-rdf-syntax-ns#"
   xmlns:svg="http://www.w3.org/2000/svg"
   xmlns="http://www.w3.org/2000/svg"
   xmlns:sodipodi="http://sodipodi.sourceforge.net/DTD/sodipodi-0.dtd"
   xmlns:inkscape="http://www.inkscape.org/namespaces/inkscape"
   width="93.382675mm"
   height="93.382675mm"
   viewBox="0 0 93.382675 93.382675"
   version="1.1"
   id="svg935"
   inkscape:version="1.0.2 (e86c870879, 2021-01-15)"
   sodipodi:docname="icon.svg"
   inkscape:export-filename="/home/toni/projects/Neo2/app/src/main/res/drawable/ic_drawable.png"
   inkscape:export-xdpi="96"
   inkscape:export-ydpi="96">
  <defs
     id="defs929">
    <inkscape:perspective
       sodipodi:type="inkscape:persp3d"
       inkscape:vp_x="0 : 322.56376 : 1"
       inkscape:vp_y="0 : 1000 : 0"
       inkscape:vp_z="744.09452 : 322.56376 : 1"
       inkscape:persp3d-origin="372.04726 : 147.17006 : 1"
       id="perspective44676" />
    <style
       type="text/css"
       id="style46661">
text.mod, text.key, text.dead {
	fill:#111;
	fill-opacity:1;
	stroke:none;
	font-style:normal;
	font-variant:normal;
	font-weight:normal;
	font-stretch:normal;
	display:inline;
	font-family:DejaVu Sans;
	writing-mode:lr-tb;
}

text.key {
	font-family:Linux Libertine;
}

text.mod {
	text-align:start;
	text-anchor:start;
}

text.deadcircle, text.dead, text.center, text.key {
	text-align:center;
	text-anchor:middle;
}

text.key { font-size:20px; }
text.dead { font-size:20px; }
text.deadcircle { font-size:16px; }
text.mod { font-size:10px; }
text.big { font-size:14px; }

.key {
	stroke-width:1.25;
}

.grey { fill:#949494; stroke:#696969; }
.grey { fill:#9f9f9f; stroke:#747474; }

/* bootstrap colors */
.l5, .r5 { fill:#93CCEA; }
.l4, .r4 { fill:#7abeb3; }
.l3, .r3 { fill:#63b280; }
.l2, .r2 { fill:#4aa44a; }

/* btn bg hover, unused */
.l2, .r2 { stroke:#3071a9; }
.l3, .r3 { stroke:#449d44; }
.l4, .r4 { stroke:#c9302c; }
.l5, .r5 { stroke:#ec971f; }

/* btn border hover */
.l2, .r2 { stroke:#204d74; }
.l3, .r3 { stroke:#204d74; }
.l4, .r4 { stroke:#204d74; }
.l5, .r5 { stroke:#204d74; }

text.nubkey { fill:#eee; }

.pressed {
	<!--opacity:0.5;-->



	fill:#777;
}
    </style>
    <g
       id="basekey">
      <rect
         width="32"
         height="32"
         rx="4"
         class="key"
         id="rect33867"
         x="0"
         y="0" />
      <!--rect width="20" height="20" x="6" y="6" /-->
      <!--rect width="2" height="2" fill="#000" x="15" y="15" /-->
    </g>
    <style
       type="text/css"
       id="style46661-5">
text.mod, text.key, text.dead {
	fill:#111;
	fill-opacity:1;
	stroke:none;
	font-style:normal;
	font-variant:normal;
	font-weight:normal;
	font-stretch:normal;
	display:inline;
	font-family:DejaVu Sans;
	writing-mode:lr-tb;
}

text.key {
	font-family:Linux Libertine;
}

text.mod {
	text-align:start;
	text-anchor:start;
}

text.deadcircle, text.dead, text.center, text.key {
	text-align:center;
	text-anchor:middle;
}

text.key { font-size:20px; }
text.dead { font-size:20px; }
text.deadcircle { font-size:16px; }
text.mod { font-size:10px; }
text.big { font-size:14px; }

.key {
	stroke-width:1.25;
}

.grey { fill:#949494; stroke:#696969; }
.grey { fill:#9f9f9f; stroke:#747474; }

/* bootstrap colors */
.l5, .r5 { fill:#93CCEA; }
.l4, .r4 { fill:#7abeb3; }
.l3, .r3 { fill:#63b280; }
.l2, .r2 { fill:#4aa44a; }

/* btn bg hover, unused */
.l2, .r2 { stroke:#3071a9; }
.l3, .r3 { stroke:#449d44; }
.l4, .r4 { stroke:#c9302c; }
.l5, .r5 { stroke:#ec971f; }

/* btn border hover */
.l2, .r2 { stroke:#204d74; }
.l3, .r3 { stroke:#204d74; }
.l4, .r4 { stroke:#204d74; }
.l5, .r5 { stroke:#204d74; }

text.nubkey { fill:#eee; }

.pressed {
	<!--opacity:0.5;-->



	fill:#777;
}
    </style>
    <g
       id="basekey-0">
      <rect
         width="32"
         height="32"
         rx="4"
         class="key"
         id="rect33867-4"
         x="0"
         y="0" />
      <!--rect width="20" height="20" x="6" y="6" /-->
      <!--rect width="2" height="2" fill="#000" x="15" y="15" /-->
    </g>
    <style
       type="text/css"
       id="style46661-9">
text.mod, text.key, text.dead {
	fill:#111;
	fill-opacity:1;
	stroke:none;
	font-style:normal;
	font-variant:normal;
	font-weight:normal;
	font-stretch:normal;
	display:inline;
	font-family:DejaVu Sans;
	writing-mode:lr-tb;
}

text.key {
	font-family:Linux Libertine;
}

text.mod {
	text-align:start;
	text-anchor:start;
}

text.deadcircle, text.dead, text.center, text.key {
	text-align:center;
	text-anchor:middle;
}

text.key { font-size:20px; }
text.dead { font-size:20px; }
text.deadcircle { font-size:16px; }
text.mod { font-size:10px; }
text.big { font-size:14px; }

.key {
	stroke-width:1.25;
}

.grey { fill:#949494; stroke:#696969; }
.grey { fill:#9f9f9f; stroke:#747474; }

/* bootstrap colors */
.l5, .r5 { fill:#93CCEA; }
.l4, .r4 { fill:#7abeb3; }
.l3, .r3 { fill:#63b280; }
.l2, .r2 { fill:#4aa44a; }

/* btn bg hover, unused */
.l2, .r2 { stroke:#3071a9; }
.l3, .r3 { stroke:#449d44; }
.l4, .r4 { stroke:#c9302c; }
.l5, .r5 { stroke:#ec971f; }

/* btn border hover */
.l2, .r2 { stroke:#204d74; }
.l3, .r3 { stroke:#204d74; }
.l4, .r4 { stroke:#204d74; }
.l5, .r5 { stroke:#204d74; }

text.nubkey { fill:#eee; }

.pressed {
	<!--opacity:0.5;-->


	fill:#777;
}
    </style>
    <g
       id="basekey-7">
      <rect
         width="32"
         height="32"
         rx="4"
         class="key"
         id="rect33867-7"
         x="0"
         y="0" />
      <!--rect width="20" height="20" x="6" y="6" /-->
      <!--rect width="2" height="2" fill="#000" x="15" y="15" /-->
    </g>
  </defs>
  <sodipodi:namedview
     id="base"
     pagecolor="#ffffff"
     bordercolor="#666666"
     borderopacity="1.0"
     inkscape:pageopacity="0.0"
     inkscape:pageshadow="2"
     inkscape:zoom="1.88"
     inkscape:cx="111.51474"
     inkscape:cy="166.73263"
     inkscape:document-units="mm"
     inkscape:current-layer="layer1"
     inkscape:document-rotation="0"
     showgrid="true"
     inkscape:window-width="1920"
     inkscape:window-height="1015"
     inkscape:window-x="0"
     inkscape:window-y="0"
     inkscape:window-maximized="1"
     inkscape:object-paths="true"
     inkscape:snap-intersection-paths="true">
    <inkscape:grid
       type="xygrid"
       id="grid1516"
       originx="-59.929281"
       originy="-75.841433" />
  </sodipodi:namedview>
  <metadata
     id="metadata932">
    <rdf:RDF>
      <cc:Work
         rdf:about="">
        <dc:format>image/svg+xml</dc:format>
        <dc:type
           rdf:resource="http://purl.org/dc/dcmitype/StillImage" />
        <dc:title></dc:title>
      </cc:Work>
    </rdf:RDF>
  </metadata>
  <g
     inkscape:label="Layer 1"
     inkscape:groupmode="layer"
     id="layer1"
     transform="translate(-59.929279,-75.841431)">
    <rect
       style="fill:#000000;fill-opacity:0;stroke:#000000;stroke-width:1;stroke-miterlimit:4;stroke-dasharray:none"
       id="rect941"
       width="92.382675"
       height="92.382675"
       x="60.429279"
       y="76.341431"
       rx="10.999999"
       ry="8.7000027" />
    <path
       style="font-style:normal;font-weight:normal;font-size:143.387px;font-family:'Linux Libertine';display:inline;fill:#000000;fill-opacity:1;stroke:none;stroke-width:0.695087px;stroke-linecap:butt;stroke-linejoin:miter;stroke-opacity:1"
       d="m 130.23176,84.944247 c -4.50012,0 -7.61214,1.575311 -9.98775,4.239146 1.14434,0.613397 2.77152,1.613141 4.17494,2.344418 1.49364,-1.328784 3.10889,-2.472878 5.81281,-2.472878 2.72325,0 5.0966,0.967444 6.48721,2.890325 1.39058,1.922868 2.40861,4.767373 2.40861,8.542522 0,3.7576 -0.37576,6.60212 -1.76631,8.54258 -1.39063,1.92299 -3.44279,2.89034 -6.16607,2.89034 -11.12171,-0.83129 -10.64056,-16.116546 -16.1538,-23.090514 -2.20054,-2.557978 -5.19583,-3.821499 -9.02428,-3.821709 -4.29367,1.1e-4 -7.732693,1.416631 -10.308871,4.239156 l 4.207041,2.215948 c 1.53855,-1.552401 3.49761,-2.312258 5.87703,-2.312258 2.43307,0 4.29986,0.748557 5.58798,2.248018 4.1355,5.39993 5.66164,16.227409 9.34544,19.911219 2.48839,2.48841 4.45712,4.27495 8.06085,4.65662 0.008,0.002 0.0236,-0.002 0.032,0 0.62764,0.15999 2.77157,0.22409 3.17937,0.0964 4.50982,0 6.39172,-1.33599 8.76738,-3.98224 2.37556,-2.66386 3.21145,-6.53048 3.21148,-11.59354 -3e-5,-5.045353 -1.49099,-8.897482 -3.88588,-11.561317 -2.37561,-2.663715 -5.35916,-3.982216 -9.85928,-3.982216 z m -48.827519,0.317247 c -3.748576,0.0357 -6.668352,1.648361 -9.120729,4.295156 -2.348943,2.535145 -3.307951,6.091117 -3.037959,11.02752 0.05551,1.02552 0,10.24205 0,14.86536 1.324213,0 3.056632,0 4.17494,0 0.02987,-4.85239 -0.06423,-5.13982 -0.06423,-14.86536 -1e-5,-3.757582 0.567063,-6.863504 2.665538,-8.735202 1.777349,-1.585391 3.407842,-2.470645 6.30622,-2.318638 2.911082,0.1529 5.574328,2.134978 6.813638,4.744573 1.74253,3.669179 0.52865,12.295387 5.21776,17.485287 2.62985,2.75199 7.694871,4.36761 12.364241,4.36761 1.62798,-1.1e-4 3.30668,-0.18994 5.04204,-0.57807 1.75319,-0.37048 2.16796,-0.62236 4.04647,-1.38099 l -4.17494,-2.21588 c -0.63691,0.0158 -4.33188,0.36771 -4.3034,0.28898 -5.88118,0.41035 -9.008313,-2.17036 -10.308871,-3.85378 -0.59413,-0.76903 -1.14907,-1.61314 -1.66998,-3.14727 -0.20197,-0.82102 -0.38654,-1.66792 -0.51383,-2.5692 -0.32794,-2.32162 -0.48395,-4.824605 -0.89922,-7.193713 -0.41525,-2.368975 -1.55589,-4.326396 -2.97707,-6.034587 -2.15766,-2.593225 -5.732147,-4.181696 -9.560615,-4.181796 z m 16.038208,13.299395 c 0.12027,1.272984 0.0147,2.548831 0.802878,3.821721 h 12.428443 l 2.3765,-1.9269 -3.14724,-1.894821 z"
       id="path44662"
       sodipodi:nodetypes="cccssscccsccscsssccscccssccsszscsccccscsssccccccc" />
    <g
       id="g1240"
       style="fill:none;fill-opacity:1;fill-rule:evenodd;stroke-width:1.75;stroke-miterlimit:4;stroke-dasharray:none"
       transform="matrix(0.16138486,0,0,0.16138486,63.376488,125.40977)">
      <g
         id="use33872"
         style="fill:none;fill-opacity:1;fill-rule:evenodd;stroke:#000000;stroke-width:1.88976;stroke-miterlimit:4;stroke-dasharray:none;stroke-opacity:1"
         transform="translate(3.5,3.5)">
        <path
           id="rect1946"
           style="fill:none;fill-opacity:1;fill-rule:evenodd;stroke:#000000;stroke-width:1.88976;stroke-miterlimit:4;stroke-dasharray:none;stroke-opacity:1"
           d="m 4,0 h 24 c 2.216,0 4,1.784 4,4 v 24 c 0,2.216 -1.784,4 -4,4 H 4 C 1.784,32 0,30.216 0,28 V 4 C 0,1.784 1.784,0 4,0 Z"
           class="key" />
        <!--rect width="20" height="20" x="6" y="6" /-->
        <!--rect width="2" height="2" fill="#000" x="15" y="15" /-->
      </g>
      <g
         id="use33874"
         style="fill:none;fill-opacity:1;fill-rule:evenodd;stroke:#000000;stroke-width:1.88976;stroke-miterlimit:4;stroke-dasharray:none;stroke-opacity:1"
         transform="translate(39.5,3.5)">
        <path
           id="rect1942"
           style="fill:none;fill-opacity:1;fill-rule:evenodd;stroke:#000000;stroke-width:1.88976;stroke-miterlimit:4;stroke-dasharray:none;stroke-opacity:1"
           d="m 4,0 h 24 c 2.216,0 4,1.784 4,4 v 24 c 0,2.216 -1.784,4 -4,4 H 4 C 1.784,32 0,30.216 0,28 V 4 C 0,1.784 1.784,0 4,0 Z"
           class="key" />
        <!--rect width="20" height="20" x="6" y="6" /-->
        <!--rect width="2" height="2" fill="#000" x="15" y="15" /-->
      </g>
      <g
         id="use33876"
         style="fill:none;fill-opacity:1;fill-rule:evenodd;stroke:#000000;stroke-width:1.88976;stroke-miterlimit:4;stroke-dasharray:none;stroke-opacity:1"
         transform="translate(75.5,3.5)">
        <path
           id="rect1938"
           style="fill:none;fill-opacity:1;fill-rule:evenodd;stroke:#000000;stroke-width:1.88976;stroke-miterlimit:4;stroke-dasharray:none;stroke-opacity:1"
           d="m 4,0 h 24 c 2.216,0 4,1.784 4,4 v 24 c 0,2.216 -1.784,4 -4,4 H 4 C 1.784,32 0,30.216 0,28 V 4 C 0,1.784 1.784,0 4,0 Z"
           class="key" />
        <!--rect width="20" height="20" x="6" y="6" /-->
        <!--rect width="2" height="2" fill="#000" x="15" y="15" /-->
      </g>
      <g
         id="use33878"
         style="fill:none;fill-opacity:1;fill-rule:evenodd;stroke:#000000;stroke-width:1.88976;stroke-miterlimit:4;stroke-dasharray:none;stroke-opacity:1"
         transform="translate(111.5,3.5)">
        <path
           id="rect1934"
           style="fill:none;fill-opacity:1;fill-rule:evenodd;stroke:#000000;stroke-width:1.88976;stroke-miterlimit:4;stroke-dasharray:none;stroke-opacity:1"
           d="m 4,0 h 24 c 2.216,0 4,1.784 4,4 v 24 c 0,2.216 -1.784,4 -4,4 H 4 C 1.784,32 0,30.216 0,28 V 4 C 0,1.784 1.784,0 4,0 Z"
           class="key" />
        <!--rect width="20" height="20" x="6" y="6" /-->
        <!--rect width="2" height="2" fill="#000" x="15" y="15" /-->
      </g>
      <g
         id="use33880"
         style="fill:none;fill-opacity:1;fill-rule:evenodd;stroke:#000000;stroke-width:1.88976;stroke-miterlimit:4;stroke-dasharray:none;stroke-opacity:1"
         transform="translate(147.5,3.5)">
        <path
           id="rect1930"
           style="fill:none;fill-opacity:1;fill-rule:evenodd;stroke:#000000;stroke-width:1.88976;stroke-miterlimit:4;stroke-dasharray:none;stroke-opacity:1"
           d="m 4,0 h 24 c 2.216,0 4,1.784 4,4 v 24 c 0,2.216 -1.784,4 -4,4 H 4 C 1.784,32 0,30.216 0,28 V 4 C 0,1.784 1.784,0 4,0 Z"
           class="key" />
        <!--rect width="20" height="20" x="6" y="6" /-->
        <!--rect width="2" height="2" fill="#000" x="15" y="15" /-->
      </g>
      <g
         id="use33882"
         style="fill:none;fill-opacity:1;fill-rule:evenodd;stroke:#000000;stroke-width:1.88976;stroke-miterlimit:4;stroke-dasharray:none;stroke-opacity:1"
         transform="translate(183.5,3.5)">
        <path
           id="rect1926"
           style="fill:none;fill-opacity:1;fill-rule:evenodd;stroke:#000000;stroke-width:1.88976;stroke-miterlimit:4;stroke-dasharray:none;stroke-opacity:1"
           d="m 4,0 h 24 c 2.216,0 4,1.784 4,4 v 24 c 0,2.216 -1.784,4 -4,4 H 4 C 1.784,32 0,30.216 0,28 V 4 C 0,1.784 1.784,0 4,0 Z"
           class="key" />
        <!--rect width="20" height="20" x="6" y="6" /-->
        <!--rect width="2" height="2" fill="#000" x="15" y="15" /-->
      </g>
      <g
         id="use33884"
         style="fill:none;fill-opacity:1;fill-rule:evenodd;stroke:#000000;stroke-width:1.88976;stroke-miterlimit:4;stroke-dasharray:none;stroke-opacity:1"
         transform="translate(219.5,3.5)">
        <path
           id="rect1922"
           style="fill:none;fill-opacity:1;fill-rule:evenodd;stroke:#000000;stroke-width:1.88976;stroke-miterlimit:4;stroke-dasharray:none;stroke-opacity:1"
           d="m 4,0 h 24 c 2.216,0 4,1.784 4,4 v 24 c 0,2.216 -1.784,4 -4,4 H 4 C 1.784,32 0,30.216 0,28 V 4 C 0,1.784 1.784,0 4,0 Z"
           class="key" />
        <!--rect width="20" height="20" x="6" y="6" /-->
        <!--rect width="2" height="2" fill="#000" x="15" y="15" /-->
      </g>
      <g
         id="use33886"
         style="fill:none;fill-opacity:1;fill-rule:evenodd;stroke:#000000;stroke-width:1.88976;stroke-miterlimit:4;stroke-dasharray:none;stroke-opacity:1"
         transform="translate(255.5,3.5)">
        <path
           id="rect1918"
           style="fill:none;fill-opacity:1;fill-rule:evenodd;stroke:#000000;stroke-width:1.88976;stroke-miterlimit:4;stroke-dasharray:none;stroke-opacity:1"
           d="m 4,0 h 24 c 2.216,0 4,1.784 4,4 v 24 c 0,2.216 -1.784,4 -4,4 H 4 C 1.784,32 0,30.216 0,28 V 4 C 0,1.784 1.784,0 4,0 Z"
           class="key" />
        <!--rect width="20" height="20" x="6" y="6" /-->
        <!--rect width="2" height="2" fill="#000" x="15" y="15" /-->
      </g>
      <g
         id="use33888"
         style="fill:none;fill-opacity:1;fill-rule:evenodd;stroke:#000000;stroke-width:1.88976;stroke-miterlimit:4;stroke-dasharray:none;stroke-opacity:1"
         transform="translate(291.5,3.5)">
        <path
           id="rect1914"
           style="fill:none;fill-opacity:1;fill-rule:evenodd;stroke:#000000;stroke-width:1.88976;stroke-miterlimit:4;stroke-dasharray:none;stroke-opacity:1"
           d="m 4,0 h 24 c 2.216,0 4,1.784 4,4 v 24 c 0,2.216 -1.784,4 -4,4 H 4 C 1.784,32 0,30.216 0,28 V 4 C 0,1.784 1.784,0 4,0 Z"
           class="key" />
        <!--rect width="20" height="20" x="6" y="6" /-->
        <!--rect width="2" height="2" fill="#000" x="15" y="15" /-->
      </g>
      <g
         id="use33890"
         style="fill:none;fill-opacity:1;fill-rule:evenodd;stroke:#000000;stroke-width:1.88976;stroke-miterlimit:4;stroke-dasharray:none;stroke-opacity:1"
         transform="translate(327.5,3.5)">
        <path
           id="rect1910"
           style="fill:none;fill-opacity:1;fill-rule:evenodd;stroke:#000000;stroke-width:1.88976;stroke-miterlimit:4;stroke-dasharray:none;stroke-opacity:1"
           d="m 4,0 h 24 c 2.216,0 4,1.784 4,4 v 24 c 0,2.216 -1.784,4 -4,4 H 4 C 1.784,32 0,30.216 0,28 V 4 C 0,1.784 1.784,0 4,0 Z"
           class="key" />
        <!--rect width="20" height="20" x="6" y="6" /-->
        <!--rect width="2" height="2" fill="#000" x="15" y="15" /-->
      </g>
      <g
         id="use33892"
         style="fill:none;fill-opacity:1;fill-rule:evenodd;stroke:#000000;stroke-width:1.88976;stroke-miterlimit:4;stroke-dasharray:none;stroke-opacity:1"
         transform="translate(363.5,3.5)">
        <path
           id="rect1906"
           style="fill:none;fill-opacity:1;fill-rule:evenodd;stroke:#000000;stroke-width:1.88976;stroke-miterlimit:4;stroke-dasharray:none;stroke-opacity:1"
           d="m 4,0 h 24 c 2.216,0 4,1.784 4,4 v 24 c 0,2.216 -1.784,4 -4,4 H 4 C 1.784,32 0,30.216 0,28 V 4 C 0,1.784 1.784,0 4,0 Z"
           class="key" />
        <!--rect width="20" height="20" x="6" y="6" /-->
        <!--rect width="2" height="2" fill="#000" x="15" y="15" /-->
      </g>
      <g
         id="use33894"
         style="fill:none;fill-opacity:1;fill-rule:evenodd;stroke:#000000;stroke-width:1.88976;stroke-miterlimit:4;stroke-dasharray:none;stroke-opacity:1"
         transform="translate(399.5,3.5)">
        <path
           id="rect1902"
           style="fill:none;fill-opacity:1;fill-rule:evenodd;stroke:#000000;stroke-width:1.88976;stroke-miterlimit:4;stroke-dasharray:none;stroke-opacity:1"
           d="m 4,0 h 24 c 2.216,0 4,1.784 4,4 v 24 c 0,2.216 -1.784,4 -4,4 H 4 C 1.784,32 0,30.216 0,28 V 4 C 0,1.784 1.784,0 4,0 Z"
           class="key" />
        <!--rect width="20" height="20" x="6" y="6" /-->
        <!--rect width="2" height="2" fill="#000" x="15" y="15" /-->
      </g>
      <g
         id="use33896"
         style="fill:none;fill-opacity:1;fill-rule:evenodd;stroke:#000000;stroke-width:1.88976;stroke-miterlimit:4;stroke-dasharray:none;stroke-opacity:1"
         transform="translate(435.5,3.5)">
        <path
           id="rect1898"
           style="fill:none;fill-opacity:1;fill-rule:evenodd;stroke:#000000;stroke-width:1.88976;stroke-miterlimit:4;stroke-dasharray:none;stroke-opacity:1"
           d="m 4,0 h 24 c 2.216,0 4,1.784 4,4 v 24 c 0,2.216 -1.784,4 -4,4 H 4 C 1.784,32 0,30.216 0,28 V 4 C 0,1.784 1.784,0 4,0 Z"
           class="key" />
        <!--rect width="20" height="20" x="6" y="6" /-->
        <!--rect width="2" height="2" fill="#000" x="15" y="15" /-->
      </g>
      <g
         id="use33898"
         style="fill:none;fill-opacity:1;fill-rule:evenodd;stroke:#000000;stroke-width:1.88976;stroke-miterlimit:4;stroke-dasharray:none;stroke-opacity:1"
         transform="translate(57.5,39.5)">
        <path
           id="rect1894"
           style="fill:none;fill-opacity:1;fill-rule:evenodd;stroke:#000000;stroke-width:1.88976;stroke-miterlimit:4;stroke-dasharray:none;stroke-opacity:1"
           d="m 4,0 h 24 c 2.216,0 4,1.784 4,4 v 24 c 0,2.216 -1.784,4 -4,4 H 4 C 1.784,32 0,30.216 0,28 V 4 C 0,1.784 1.784,0 4,0 Z"
           class="key" />
        <!--rect width="20" height="20" x="6" y="6" /-->
        <!--rect width="2" height="2" fill="#000" x="15" y="15" /-->
      </g>
      <g
         id="use33900"
         style="fill:none;fill-opacity:1;fill-rule:evenodd;stroke:#000000;stroke-width:1.88976;stroke-miterlimit:4;stroke-dasharray:none;stroke-opacity:1"
         transform="translate(93.5,39.5)">
        <path
           id="rect1890"
           style="fill:none;fill-opacity:1;fill-rule:evenodd;stroke:#000000;stroke-width:1.88976;stroke-miterlimit:4;stroke-dasharray:none;stroke-opacity:1"
           d="m 4,0 h 24 c 2.216,0 4,1.784 4,4 v 24 c 0,2.216 -1.784,4 -4,4 H 4 C 1.784,32 0,30.216 0,28 V 4 C 0,1.784 1.784,0 4,0 Z"
           class="key" />
        <!--rect width="20" height="20" x="6" y="6" /-->
        <!--rect width="2" height="2" fill="#000" x="15" y="15" /-->
      </g>
      <g
         id="use33902"
         style="fill:none;fill-opacity:1;fill-rule:evenodd;stroke:#000000;stroke-width:1.88976;stroke-miterlimit:4;stroke-dasharray:none;stroke-opacity:1"
         transform="translate(129.5,39.5)">
        <path
           id="rect1886"
           style="fill:none;fill-opacity:1;fill-rule:evenodd;stroke:#000000;stroke-width:1.88976;stroke-miterlimit:4;stroke-dasharray:none;stroke-opacity:1"
           d="m 4,0 h 24 c 2.216,0 4,1.784 4,4 v 24 c 0,2.216 -1.784,4 -4,4 H 4 C 1.784,32 0,30.216 0,28 V 4 C 0,1.784 1.784,0 4,0 Z"
           class="key" />
        <!--rect width="20" height="20" x="6" y="6" /-->
        <!--rect width="2" height="2" fill="#000" x="15" y="15" /-->
      </g>
      <g
         id="use33904"
         style="fill:none;fill-opacity:1;fill-rule:evenodd;stroke:#000000;stroke-width:1.88976;stroke-miterlimit:4;stroke-dasharray:none;stroke-opacity:1"
         transform="translate(165.5,39.5)">
        <path
           id="rect1882"
           style="fill:none;fill-opacity:1;fill-rule:evenodd;stroke:#000000;stroke-width:1.88976;stroke-miterlimit:4;stroke-dasharray:none;stroke-opacity:1"
           d="m 4,0 h 24 c 2.216,0 4,1.784 4,4 v 24 c 0,2.216 -1.784,4 -4,4 H 4 C 1.784,32 0,30.216 0,28 V 4 C 0,1.784 1.784,0 4,0 Z"
           class="key" />
        <!--rect width="20" height="20" x="6" y="6" /-->
        <!--rect width="2" height="2" fill="#000" x="15" y="15" /-->
      </g>
      <g
         id="use33906"
         style="fill:none;fill-opacity:1;fill-rule:evenodd;stroke:#000000;stroke-width:1.88976;stroke-miterlimit:4;stroke-dasharray:none;stroke-opacity:1"
         transform="translate(201.5,39.5)">
        <path
           id="rect1878"
           style="fill:none;fill-opacity:1;fill-rule:evenodd;stroke:#000000;stroke-width:1.88976;stroke-miterlimit:4;stroke-dasharray:none;stroke-opacity:1"
           d="m 4,0 h 24 c 2.216,0 4,1.784 4,4 v 24 c 0,2.216 -1.784,4 -4,4 H 4 C 1.784,32 0,30.216 0,28 V 4 C 0,1.784 1.784,0 4,0 Z"
           class="key" />
        <!--rect width="20" height="20" x="6" y="6" /-->
        <!--rect width="2" height="2" fill="#000" x="15" y="15" /-->
      </g>
      <g
         id="use33908"
         style="fill:none;fill-opacity:1;fill-rule:evenodd;stroke:#000000;stroke-width:1.88976;stroke-miterlimit:4;stroke-dasharray:none;stroke-opacity:1"
         transform="translate(237.5,39.5)">
        <path
           id="rect1874"
           style="fill:none;fill-opacity:1;fill-rule:evenodd;stroke:#000000;stroke-width:1.88976;stroke-miterlimit:4;stroke-dasharray:none;stroke-opacity:1"
           d="m 4,0 h 24 c 2.216,0 4,1.784 4,4 v 24 c 0,2.216 -1.784,4 -4,4 H 4 C 1.784,32 0,30.216 0,28 V 4 C 0,1.784 1.784,0 4,0 Z"
           class="key" />
        <!--rect width="20" height="20" x="6" y="6" /-->
        <!--rect width="2" height="2" fill="#000" x="15" y="15" /-->
      </g>
      <g
         id="use33910"
         style="fill:none;fill-opacity:1;fill-rule:evenodd;stroke:#000000;stroke-width:1.88976;stroke-miterlimit:4;stroke-dasharray:none;stroke-opacity:1"
         transform="translate(273.5,39.5)">
        <path
           id="rect1870"
           style="fill:none;fill-opacity:1;fill-rule:evenodd;stroke:#000000;stroke-width:1.88976;stroke-miterlimit:4;stroke-dasharray:none;stroke-opacity:1"
           d="m 4,0 h 24 c 2.216,0 4,1.784 4,4 v 24 c 0,2.216 -1.784,4 -4,4 H 4 C 1.784,32 0,30.216 0,28 V 4 C 0,1.784 1.784,0 4,0 Z"
           class="key" />
        <!--rect width="20" height="20" x="6" y="6" /-->
        <!--rect width="2" height="2" fill="#000" x="15" y="15" /-->
      </g>
      <g
         id="use33912"
         style="fill:none;fill-opacity:1;fill-rule:evenodd;stroke:#000000;stroke-width:1.88976;stroke-miterlimit:4;stroke-dasharray:none;stroke-opacity:1"
         transform="translate(309.5,39.5)">
        <path
           id="rect1866"
           style="fill:none;fill-opacity:1;fill-rule:evenodd;stroke:#000000;stroke-width:1.88976;stroke-miterlimit:4;stroke-dasharray:none;stroke-opacity:1"
           d="m 4,0 h 24 c 2.216,0 4,1.784 4,4 v 24 c 0,2.216 -1.784,4 -4,4 H 4 C 1.784,32 0,30.216 0,28 V 4 C 0,1.784 1.784,0 4,0 Z"
           class="key" />
        <!--rect width="20" height="20" x="6" y="6" /-->
        <!--rect width="2" height="2" fill="#000" x="15" y="15" /-->
      </g>
      <g
         id="use33914"
         style="fill:none;fill-opacity:1;fill-rule:evenodd;stroke:#000000;stroke-width:1.88976;stroke-miterlimit:4;stroke-dasharray:none;stroke-opacity:1"
         transform="translate(345.5,39.5)">
        <path
           id="rect1862"
           style="fill:none;fill-opacity:1;fill-rule:evenodd;stroke:#000000;stroke-width:1.88976;stroke-miterlimit:4;stroke-dasharray:none;stroke-opacity:1"
           d="m 4,0 h 24 c 2.216,0 4,1.784 4,4 v 24 c 0,2.216 -1.784,4 -4,4 H 4 C 1.784,32 0,30.216 0,28 V 4 C 0,1.784 1.784,0 4,0 Z"
           class="key" />
        <!--rect width="20" height="20" x="6" y="6" /-->
        <!--rect width="2" height="2" fill="#000" x="15" y="15" /-->
      </g>
      <g
         id="use33916"
         style="fill:none;fill-opacity:1;fill-rule:evenodd;stroke:#000000;stroke-width:1.88976;stroke-miterlimit:4;stroke-dasharray:none;stroke-opacity:1"
         transform="translate(381.5,39.5)">
        <path
           id="rect1858"
           style="fill:none;fill-opacity:1;fill-rule:evenodd;stroke:#000000;stroke-width:1.88976;stroke-miterlimit:4;stroke-dasharray:none;stroke-opacity:1"
           d="m 4,0 h 24 c 2.216,0 4,1.784 4,4 v 24 c 0,2.216 -1.784,4 -4,4 H 4 C 1.784,32 0,30.216 0,28 V 4 C 0,1.784 1.784,0 4,0 Z"
           class="key" />
        <!--rect width="20" height="20" x="6" y="6" /-->
        <!--rect width="2" height="2" fill="#000" x="15" y="15" /-->
      </g>
      <g
         id="use33918"
         style="fill:none;fill-opacity:1;fill-rule:evenodd;stroke:#000000;stroke-width:1.88976;stroke-miterlimit:4;stroke-dasharray:none;stroke-opacity:1"
         transform="translate(417.5,39.5)">
        <path
           id="rect1854"
           style="fill:none;fill-opacity:1;fill-rule:evenodd;stroke:#000000;stroke-width:1.88976;stroke-miterlimit:4;stroke-dasharray:none;stroke-opacity:1"
           d="m 4,0 h 24 c 2.216,0 4,1.784 4,4 v 24 c 0,2.216 -1.784,4 -4,4 H 4 C 1.784,32 0,30.216 0,28 V 4 C 0,1.784 1.784,0 4,0 Z"
           class="key" />
        <!--rect width="20" height="20" x="6" y="6" /-->
        <!--rect width="2" height="2" fill="#000" x="15" y="15" /-->
      </g>
      <g
         id="use33920"
         style="fill:none;fill-opacity:1;fill-rule:evenodd;stroke:#000000;stroke-width:1.88976;stroke-miterlimit:4;stroke-dasharray:none;stroke-opacity:1"
         transform="translate(453.5,39.5)">
        <path
           id="rect1759"
           style="fill:none;fill-opacity:1;fill-rule:evenodd;stroke:#000000;stroke-width:1.88976;stroke-miterlimit:4;stroke-dasharray:none;stroke-opacity:1"
           d="m 4,0 h 24 c 2.216,0 4,1.784 4,4 v 24 c 0,2.216 -1.784,4 -4,4 H 4 C 1.784,32 0,30.216 0,28 V 4 C 0,1.784 1.784,0 4,0 Z"
           class="key" />
        <!--rect width="20" height="20" x="6" y="6" /-->
        <!--rect width="2" height="2" fill="#000" x="15" y="15" /-->
      </g>
      <g
         id="use33922"
         style="fill:none;fill-opacity:1;fill-rule:evenodd;stroke:#000000;stroke-width:1.88976;stroke-miterlimit:4;stroke-dasharray:none;stroke-opacity:1"
         transform="translate(67.5,75.5)">
        <path
           id="rect1850"
           style="fill:none;fill-opacity:1;fill-rule:evenodd;stroke:#000000;stroke-width:1.88976;stroke-miterlimit:4;stroke-dasharray:none;stroke-opacity:1"
           d="m 4,0 h 24 c 2.216,0 4,1.784 4,4 v 24 c 0,2.216 -1.784,4 -4,4 H 4 C 1.784,32 0,30.216 0,28 V 4 C 0,1.784 1.784,0 4,0 Z"
           class="key" />
        <!--rect width="20" height="20" x="6" y="6" /-->
        <!--rect width="2" height="2" fill="#000" x="15" y="15" /-->
      </g>
      <g
         id="use33924"
         style="fill:none;fill-opacity:1;fill-rule:evenodd;stroke:#000000;stroke-width:1.88976;stroke-miterlimit:4;stroke-dasharray:none;stroke-opacity:1"
         transform="translate(103.5,75.5)">
        <path
           id="rect1846"
           style="fill:none;fill-opacity:1;fill-rule:evenodd;stroke:#000000;stroke-width:1.88976;stroke-miterlimit:4;stroke-dasharray:none;stroke-opacity:1"
           d="m 4,0 h 24 c 2.216,0 4,1.784 4,4 v 24 c 0,2.216 -1.784,4 -4,4 H 4 C 1.784,32 0,30.216 0,28 V 4 C 0,1.784 1.784,0 4,0 Z"
           class="key" />
        <!--rect width="20" height="20" x="6" y="6" /-->
        <!--rect width="2" height="2" fill="#000" x="15" y="15" /-->
      </g>
      <g
         id="use33926"
         style="fill:none;fill-opacity:1;fill-rule:evenodd;stroke:#000000;stroke-width:1.88976;stroke-miterlimit:4;stroke-dasharray:none;stroke-opacity:1"
         transform="translate(139.5,75.5)">
        <path
           id="rect1842"
           style="fill:none;fill-opacity:1;fill-rule:evenodd;stroke:#000000;stroke-width:1.88976;stroke-miterlimit:4;stroke-dasharray:none;stroke-opacity:1"
           d="m 4,0 h 24 c 2.216,0 4,1.784 4,4 v 24 c 0,2.216 -1.784,4 -4,4 H 4 C 1.784,32 0,30.216 0,28 V 4 C 0,1.784 1.784,0 4,0 Z"
           class="key" />
        <!--rect width="20" height="20" x="6" y="6" /-->
        <!--rect width="2" height="2" fill="#000" x="15" y="15" /-->
      </g>
      <g
         id="use33928"
         style="fill:none;fill-opacity:1;fill-rule:evenodd;stroke:#000000;stroke-width:1.88976;stroke-miterlimit:4;stroke-dasharray:none;stroke-opacity:1"
         transform="translate(175.5,75.5)">
        <path
           id="rect1838"
           style="fill:none;fill-opacity:1;fill-rule:evenodd;stroke:#000000;stroke-width:1.88976;stroke-miterlimit:4;stroke-dasharray:none;stroke-opacity:1"
           d="m 4,0 h 24 c 2.216,0 4,1.784 4,4 v 24 c 0,2.216 -1.784,4 -4,4 H 4 C 1.784,32 0,30.216 0,28 V 4 C 0,1.784 1.784,0 4,0 Z"
           class="key" />
        <!--rect width="20" height="20" x="6" y="6" /-->
        <!--rect width="2" height="2" fill="#000" x="15" y="15" /-->
      </g>
      <g
         id="use33930"
         style="fill:none;fill-opacity:1;fill-rule:evenodd;stroke:#000000;stroke-width:1.88976;stroke-miterlimit:4;stroke-dasharray:none;stroke-opacity:1"
         transform="translate(211.5,75.5)">
        <path
           id="rect1834"
           style="fill:none;fill-opacity:1;fill-rule:evenodd;stroke:#000000;stroke-width:1.88976;stroke-miterlimit:4;stroke-dasharray:none;stroke-opacity:1"
           d="m 4,0 h 24 c 2.216,0 4,1.784 4,4 v 24 c 0,2.216 -1.784,4 -4,4 H 4 C 1.784,32 0,30.216 0,28 V 4 C 0,1.784 1.784,0 4,0 Z"
           class="key" />
        <!--rect width="20" height="20" x="6" y="6" /-->
        <!--rect width="2" height="2" fill="#000" x="15" y="15" /-->
      </g>
      <g
         id="use33932"
         style="fill:none;fill-opacity:1;fill-rule:evenodd;stroke:#000000;stroke-width:1.88976;stroke-miterlimit:4;stroke-dasharray:none;stroke-opacity:1"
         transform="translate(247.5,75.5)">
        <path
           id="rect1830"
           style="fill:none;fill-opacity:1;fill-rule:evenodd;stroke:#000000;stroke-width:1.88976;stroke-miterlimit:4;stroke-dasharray:none;stroke-opacity:1"
           d="m 4,0 h 24 c 2.216,0 4,1.784 4,4 v 24 c 0,2.216 -1.784,4 -4,4 H 4 C 1.784,32 0,30.216 0,28 V 4 C 0,1.784 1.784,0 4,0 Z"
           class="key" />
        <!--rect width="20" height="20" x="6" y="6" /-->
        <!--rect width="2" height="2" fill="#000" x="15" y="15" /-->
      </g>
      <g
         id="use33934"
         style="fill:none;fill-opacity:1;fill-rule:evenodd;stroke:#000000;stroke-width:1.88976;stroke-miterlimit:4;stroke-dasharray:none;stroke-opacity:1"
         transform="translate(283.5,75.5)">
        <path
           id="rect1826"
           style="fill:none;fill-opacity:1;fill-rule:evenodd;stroke:#000000;stroke-width:1.88976;stroke-miterlimit:4;stroke-dasharray:none;stroke-opacity:1"
           d="m 4,0 h 24 c 2.216,0 4,1.784 4,4 v 24 c 0,2.216 -1.784,4 -4,4 H 4 C 1.784,32 0,30.216 0,28 V 4 C 0,1.784 1.784,0 4,0 Z"
           class="key" />
        <!--rect width="20" height="20" x="6" y="6" /-->
        <!--rect width="2" height="2" fill="#000" x="15" y="15" /-->
      </g>
      <g
         id="use33936"
         style="fill:none;fill-opacity:1;fill-rule:evenodd;stroke:#000000;stroke-width:1.88976;stroke-miterlimit:4;stroke-dasharray:none;stroke-opacity:1"
         transform="translate(319.5,75.5)">
        <path
           id="rect1822"
           style="fill:none;fill-opacity:1;fill-rule:evenodd;stroke:#000000;stroke-width:1.88976;stroke-miterlimit:4;stroke-dasharray:none;stroke-opacity:1"
           d="m 4,0 h 24 c 2.216,0 4,1.784 4,4 v 24 c 0,2.216 -1.784,4 -4,4 H 4 C 1.784,32 0,30.216 0,28 V 4 C 0,1.784 1.784,0 4,0 Z"
           class="key" />
        <!--rect width="20" height="20" x="6" y="6" /-->
        <!--rect width="2" height="2" fill="#000" x="15" y="15" /-->
      </g>
      <g
         id="use33938"
         style="fill:none;fill-opacity:1;fill-rule:evenodd;stroke:#000000;stroke-width:1.88976;stroke-miterlimit:4;stroke-dasharray:none;stroke-opacity:1"
         transform="translate(355.5,75.5)">
        <path
           id="rect1818"
           style="fill:none;fill-opacity:1;fill-rule:evenodd;stroke:#000000;stroke-width:1.88976;stroke-miterlimit:4;stroke-dasharray:none;stroke-opacity:1"
           d="m 4,0 h 24 c 2.216,0 4,1.784 4,4 v 24 c 0,2.216 -1.784,4 -4,4 H 4 C 1.784,32 0,30.216 0,28 V 4 C 0,1.784 1.784,0 4,0 Z"
           class="key" />
        <!--rect width="20" height="20" x="6" y="6" /-->
        <!--rect width="2" height="2" fill="#000" x="15" y="15" /-->
      </g>
      <g
         id="use33940"
         style="fill:none;fill-opacity:1;fill-rule:evenodd;stroke:#000000;stroke-width:1.88976;stroke-miterlimit:4;stroke-dasharray:none;stroke-opacity:1"
         transform="translate(391.5,75.5)">
        <path
           id="rect1814"
           style="fill:none;fill-opacity:1;fill-rule:evenodd;stroke:#000000;stroke-width:1.88976;stroke-miterlimit:4;stroke-dasharray:none;stroke-opacity:1"
           d="m 4,0 h 24 c 2.216,0 4,1.784 4,4 v 24 c 0,2.216 -1.784,4 -4,4 H 4 C 1.784,32 0,30.216 0,28 V 4 C 0,1.784 1.784,0 4,0 Z"
           class="key" />
        <!--rect width="20" height="20" x="6" y="6" /-->
        <!--rect width="2" height="2" fill="#000" x="15" y="15" /-->
      </g>
      <g
         id="use33942"
         style="fill:none;fill-opacity:1;fill-rule:evenodd;stroke:#000000;stroke-width:1.88976;stroke-miterlimit:4;stroke-dasharray:none;stroke-opacity:1"
         transform="translate(427.5,75.5)">
        <path
           id="rect1810"
           style="fill:none;fill-opacity:1;fill-rule:evenodd;stroke:#000000;stroke-width:1.88976;stroke-miterlimit:4;stroke-dasharray:none;stroke-opacity:1"
           d="m 4,0 h 24 c 2.216,0 4,1.784 4,4 v 24 c 0,2.216 -1.784,4 -4,4 H 4 C 1.784,32 0,30.216 0,28 V 4 C 0,1.784 1.784,0 4,0 Z"
           class="key" />
        <!--rect width="20" height="20" x="6" y="6" /-->
        <!--rect width="2" height="2" fill="#000" x="15" y="15" /-->
      </g>
      <g
         id="use33944"
         style="fill:none;fill-opacity:1;fill-rule:evenodd;stroke:#000000;stroke-width:1.88976;stroke-miterlimit:4;stroke-dasharray:none;stroke-opacity:1"
         transform="translate(85.5,111.5)">
        <path
           id="rect1806"
           style="fill:none;fill-opacity:1;fill-rule:evenodd;stroke:#000000;stroke-width:1.88976;stroke-miterlimit:4;stroke-dasharray:none;stroke-opacity:1"
           d="m 4,0 h 24 c 2.216,0 4,1.784 4,4 v 24 c 0,2.216 -1.784,4 -4,4 H 4 C 1.784,32 0,30.216 0,28 V 4 C 0,1.784 1.784,0 4,0 Z"
           class="key" />
        <!--rect width="20" height="20" x="6" y="6" /-->
        <!--rect width="2" height="2" fill="#000" x="15" y="15" /-->
      </g>
      <g
         id="use33946"
         style="fill:none;fill-opacity:1;fill-rule:evenodd;stroke:#000000;stroke-width:1.88976;stroke-miterlimit:4;stroke-dasharray:none;stroke-opacity:1"
         transform="translate(121.5,111.5)">
        <path
           id="rect1802"
           style="fill:none;fill-opacity:1;fill-rule:evenodd;stroke:#000000;stroke-width:1.88976;stroke-miterlimit:4;stroke-dasharray:none;stroke-opacity:1"
           d="m 4,0 h 24 c 2.216,0 4,1.784 4,4 v 24 c 0,2.216 -1.784,4 -4,4 H 4 C 1.784,32 0,30.216 0,28 V 4 C 0,1.784 1.784,0 4,0 Z"
           class="key" />
        <!--rect width="20" height="20" x="6" y="6" /-->
        <!--rect width="2" height="2" fill="#000" x="15" y="15" /-->
      </g>
      <g
         id="use33948"
         style="fill:none;fill-opacity:1;fill-rule:evenodd;stroke:#000000;stroke-width:1.88976;stroke-miterlimit:4;stroke-dasharray:none;stroke-opacity:1"
         transform="translate(157.5,111.5)">
        <path
           id="rect1798"
           style="fill:none;fill-opacity:1;fill-rule:evenodd;stroke:#000000;stroke-width:1.88976;stroke-miterlimit:4;stroke-dasharray:none;stroke-opacity:1"
           d="m 4,0 h 24 c 2.216,0 4,1.784 4,4 v 24 c 0,2.216 -1.784,4 -4,4 H 4 C 1.784,32 0,30.216 0,28 V 4 C 0,1.784 1.784,0 4,0 Z"
           class="key" />
        <!--rect width="20" height="20" x="6" y="6" /-->
        <!--rect width="2" height="2" fill="#000" x="15" y="15" /-->
      </g>
      <g
         id="use33950"
         style="fill:none;fill-opacity:1;fill-rule:evenodd;stroke:#000000;stroke-width:1.88976;stroke-miterlimit:4;stroke-dasharray:none;stroke-opacity:1"
         transform="translate(193.5,111.5)">
        <path
           id="rect1794"
           style="fill:none;fill-opacity:1;fill-rule:evenodd;stroke:#000000;stroke-width:1.88976;stroke-miterlimit:4;stroke-dasharray:none;stroke-opacity:1"
           d="m 4,0 h 24 c 2.216,0 4,1.784 4,4 v 24 c 0,2.216 -1.784,4 -4,4 H 4 C 1.784,32 0,30.216 0,28 V 4 C 0,1.784 1.784,0 4,0 Z"
           class="key" />
        <!--rect width="20" height="20" x="6" y="6" /-->
        <!--rect width="2" height="2" fill="#000" x="15" y="15" /-->
      </g>
      <g
         id="use33952"
         style="fill:none;fill-opacity:1;fill-rule:evenodd;stroke:#000000;stroke-width:1.88976;stroke-miterlimit:4;stroke-dasharray:none;stroke-opacity:1"
         transform="translate(229.5,111.5)">
        <path
           id="rect1790"
           style="fill:none;fill-opacity:1;fill-rule:evenodd;stroke:#000000;stroke-width:1.88976;stroke-miterlimit:4;stroke-dasharray:none;stroke-opacity:1"
           d="m 4,0 h 24 c 2.216,0 4,1.784 4,4 v 24 c 0,2.216 -1.784,4 -4,4 H 4 C 1.784,32 0,30.216 0,28 V 4 C 0,1.784 1.784,0 4,0 Z"
           class="key" />
        <!--rect width="20" height="20" x="6" y="6" /-->
        <!--rect width="2" height="2" fill="#000" x="15" y="15" /-->
      </g>
      <g
         id="use33954"
         style="fill:none;fill-opacity:1;fill-rule:evenodd;stroke:#000000;stroke-width:1.88976;stroke-miterlimit:4;stroke-dasharray:none;stroke-opacity:1"
         transform="translate(265.5,111.5)">
        <path
           id="rect1786"
           style="fill:none;fill-opacity:1;fill-rule:evenodd;stroke:#000000;stroke-width:1.88976;stroke-miterlimit:4;stroke-dasharray:none;stroke-opacity:1"
           d="m 4,0 h 24 c 2.216,0 4,1.784 4,4 v 24 c 0,2.216 -1.784,4 -4,4 H 4 C 1.784,32 0,30.216 0,28 V 4 C 0,1.784 1.784,0 4,0 Z"
           class="key" />
        <!--rect width="20" height="20" x="6" y="6" /-->
        <!--rect width="2" height="2" fill="#000" x="15" y="15" /-->
      </g>
      <g
         id="use33956"
         style="fill:none;fill-opacity:1;fill-rule:evenodd;stroke:#000000;stroke-width:1.88976;stroke-miterlimit:4;stroke-dasharray:none;stroke-opacity:1"
         transform="translate(301.5,111.5)">
        <path
           id="rect1782"
           style="fill:none;fill-opacity:1;fill-rule:evenodd;stroke:#000000;stroke-width:1.88976;stroke-miterlimit:4;stroke-dasharray:none;stroke-opacity:1"
           d="m 4,0 h 24 c 2.216,0 4,1.784 4,4 v 24 c 0,2.216 -1.784,4 -4,4 H 4 C 1.784,32 0,30.216 0,28 V 4 C 0,1.784 1.784,0 4,0 Z"
           class="key" />
        <!--rect width="20" height="20" x="6" y="6" /-->
        <!--rect width="2" height="2" fill="#000" x="15" y="15" /-->
      </g>
      <g
         id="use33958"
         style="fill:none;fill-opacity:1;fill-rule:evenodd;stroke:#000000;stroke-width:1.88976;stroke-miterlimit:4;stroke-dasharray:none;stroke-opacity:1"
         transform="translate(337.5,111.5)">
        <path
           id="rect1778"
           style="fill:none;fill-opacity:1;fill-rule:evenodd;stroke:#000000;stroke-width:1.88976;stroke-miterlimit:4;stroke-dasharray:none;stroke-opacity:1"
           d="m 4,0 h 24 c 2.216,0 4,1.784 4,4 v 24 c 0,2.216 -1.784,4 -4,4 H 4 C 1.784,32 0,30.216 0,28 V 4 C 0,1.784 1.784,0 4,0 Z"
           class="key" />
        <!--rect width="20" height="20" x="6" y="6" /-->
        <!--rect width="2" height="2" fill="#000" x="15" y="15" /-->
      </g>
      <g
         id="use33960"
         style="fill:none;fill-opacity:1;fill-rule:evenodd;stroke:#000000;stroke-width:1.88976;stroke-miterlimit:4;stroke-dasharray:none;stroke-opacity:1"
         transform="translate(373.5,111.5)">
        <path
           id="rect1774"
           style="fill:none;fill-opacity:1;fill-rule:evenodd;stroke:#000000;stroke-width:1.88976;stroke-miterlimit:4;stroke-dasharray:none;stroke-opacity:1"
           d="m 4,0 h 24 c 2.216,0 4,1.784 4,4 v 24 c 0,2.216 -1.784,4 -4,4 H 4 C 1.784,32 0,30.216 0,28 V 4 C 0,1.784 1.784,0 4,0 Z"
           class="key" />
        <!--rect width="20" height="20" x="6" y="6" /-->
        <!--rect width="2" height="2" fill="#000" x="15" y="15" /-->
      </g>
      <g
         id="use33962"
         style="fill:none;fill-opacity:1;fill-rule:evenodd;stroke:#000000;stroke-width:1.88976;stroke-miterlimit:4;stroke-dasharray:none;stroke-opacity:1"
         transform="translate(409.5,111.5)">
        <path
           id="rect1770"
           style="fill:none;fill-opacity:1;fill-rule:evenodd;stroke:#000000;stroke-width:1.88976;stroke-miterlimit:4;stroke-dasharray:none;stroke-opacity:1"
           d="m 4,0 h 24 c 2.216,0 4,1.784 4,4 v 24 c 0,2.216 -1.784,4 -4,4 H 4 C 1.784,32 0,30.216 0,28 V 4 C 0,1.784 1.784,0 4,0 Z"
           class="key" />
        <!--rect width="20" height="20" x="6" y="6" /-->
        <!--rect width="2" height="2" fill="#000" x="15" y="15" /-->
      </g>
      <path
         id="backspace"
         style="fill:none;fill-opacity:1;fill-rule:evenodd;stroke:#000000;stroke-width:1.88976;stroke-miterlimit:4;stroke-dasharray:none;stroke-opacity:1"
         d="m 475.5,3.5 h 52 c 2.216,0 4,1.784 4,4 v 24 c 0,2.216 -1.784,4 -4,4 h -52 c -2.216,0 -4,-1.784 -4,-4 v -24 c 0,-2.216 1.784,-4 4,-4 z"
         class="key grey" />
      <path
         id="tab"
         style="fill:none;fill-opacity:1;fill-rule:evenodd;stroke:#000000;stroke-width:1.88976;stroke-miterlimit:4;stroke-dasharray:none;stroke-opacity:1"
         d="m 7.5,39.5 h 42 c 2.216,0 4,1.784 4,4 v 24 c 0,2.216 -1.784,4 -4,4 h -42 c -2.216,0 -4,-1.784 -4,-4 v -24 c 0,-2.216 1.784,-4 4,-4 z"
         class="key grey" />
      <path
         id="m3l"
         style="fill:none;fill-opacity:1;fill-rule:evenodd;stroke:#000000;stroke-width:1.88976;stroke-miterlimit:4;stroke-dasharray:none;stroke-opacity:1"
         d="m 7.5,75.5 h 52 c 2.216,0 4,1.784 4,4 v 24 c 0,2.216 -1.784,4 -4,4 h -52 c -2.216,0 -4,-1.784 -4,-4 v -24 c 0,-2.216 1.784,-4 4,-4 z"
         class="key grey" />
      <g
         id="m3r"
         style="fill:none;fill-opacity:1;fill-rule:evenodd;stroke:#000000;stroke-width:1.88976;stroke-miterlimit:4;stroke-dasharray:none;stroke-opacity:1"
         transform="translate(463.5,75.5)">
        <path
           id="rect1766"
           style="fill:none;fill-opacity:1;fill-rule:evenodd;stroke:#000000;stroke-width:1.88976;stroke-miterlimit:4;stroke-dasharray:none;stroke-opacity:1"
           d="m 4,0 h 24 c 2.216,0 4,1.784 4,4 v 24 c 0,2.216 -1.784,4 -4,4 H 4 C 1.784,32 0,30.216 0,28 V 4 C 0,1.784 1.784,0 4,0 Z"
           class="key" />
        <!--rect width="20" height="20" x="6" y="6" /-->
        <!--rect width="2" height="2" fill="#000" x="15" y="15" /-->
      </g>
      <path
         id="shiftl"
         style="fill:none;fill-opacity:1;fill-rule:evenodd;stroke:#000000;stroke-width:1.88976;stroke-miterlimit:4;stroke-dasharray:none;stroke-opacity:1"
         d="m 7.5,111.5 h 32 c 2.216,0 4,1.784 4,4 v 24 c 0,2.216 -1.784,4 -4,4 h -32 c -2.216,0 -4,-1.784 -4,-4 v -24 c 0,-2.216 1.784,-4 4,-4 z"
         class="key grey" />
      <path
         id="m4l"
         style="fill:none;fill-opacity:1;fill-rule:evenodd;stroke:#000000;stroke-width:1.88976;stroke-miterlimit:4;stroke-dasharray:none;stroke-opacity:1"
         d="m 51.5,111.5 h 26 c 2.216,0 4,1.784 4,4 v 24 c 0,2.216 -1.784,4 -4,4 h -26 c -2.216,0 -4,-1.784 -4,-4 v -24 c 0,-2.216 1.784,-4 4,-4 z"
         class="key grey" />
      <path
         id="shiftr"
         style="fill:none;fill-opacity:1;fill-rule:evenodd;stroke:#000000;stroke-width:1.88976;stroke-miterlimit:4;stroke-dasharray:none;stroke-opacity:1"
         d="m 449.5,111.5 h 78 c 2.216,0 4,1.784 4,4 v 24 c 0,2.216 -1.784,4 -4,4 h -78 c -2.216,0 -4,-1.784 -4,-4 v -24 c 0,-2.216 1.784,-4 4,-4 z"
         class="key grey" />
      <path
         id="ctrll"
         style="fill:none;fill-opacity:1;fill-rule:evenodd;stroke:#000000;stroke-width:1.88976;stroke-miterlimit:4;stroke-dasharray:none;stroke-opacity:1"
         d="m 7.5,147.5 h 42 c 2.216,0 4,1.784 4,4 v 24 c 0,2.216 -1.784,4 -4,4 h -42 c -2.216,0 -4,-1.784 -4,-4 v -24 c 0,-2.216 1.784,-4 4,-4 z"
         class="key grey" />
      <path
         id="altl"
         style="fill:none;fill-opacity:1;fill-rule:evenodd;stroke:#000000;stroke-width:1.88976;stroke-miterlimit:4;stroke-dasharray:none;stroke-opacity:1"
         d="m 131.5,147.5 h 40 c 2.216,0 4,1.784 4,4 v 24 c 0,2.216 -1.784,4 -4,4 h -40 c -2.216,0 -4,-1.784 -4,-4 v -24 c 0,-2.216 1.784,-4 4,-4 z"
         class="key grey" />
      <path
         id="space"
         style="fill:none;fill-opacity:1;fill-rule:evenodd;stroke:#000000;stroke-width:1.88976;stroke-miterlimit:4;stroke-dasharray:none;stroke-opacity:1"
         d="m 183.5,147.5 h 160 c 2.216,0 4,1.784 4,4 v 24 c 0,2.216 -1.784,4 -4,4 h -160 c -2.216,0 -4,-1.784 -4,-4 v -24 c 0,-2.216 1.784,-4 4,-4 z"
         class="key grey" />
      <path
         id="m4r"
         style="fill:none;fill-opacity:1;fill-rule:evenodd;stroke:#000000;stroke-width:1.88976;stroke-miterlimit:4;stroke-dasharray:none;stroke-opacity:1"
         d="m 355.5,147.5 h 40 c 2.216,0 4,1.784 4,4 v 24 c 0,2.216 -1.784,4 -4,4 h -40 c -2.216,0 -4,-1.784 -4,-4 v -24 c 0,-2.216 1.784,-4 4,-4 z"
         class="key grey" />
      <path
         id="ctrlr"
         style="fill:none;fill-opacity:1;fill-rule:evenodd;stroke:#000000;stroke-width:1.88976;stroke-miterlimit:4;stroke-dasharray:none;stroke-opacity:1"
         d="m 485.5,147.5 h 42 c 2.216,0 4,1.784 4,4 v 24 c 0,2.216 -1.784,4 -4,4 h -42 c -2.216,0 -4,-1.784 -4,-4 v -24 c 0,-2.216 1.784,-4 4,-4 z"
         class="key grey" />
      <path
         fill-rule="evenodd"
         clip-rule="evenodd"
         d="m 499.5,71.5 h -6 a 4,4 0 0 1 -4,-4 v -24 a 4,4 0 0 1 4,-4 h 34 a 4,4 0 0 1 4,4 v 60 a 4,4 0 0 1 -4,4 h -24 a 4,4 0 0 1 -4,-4 z"
         id="return"
         class="key grey"
         style="fill:none;fill-opacity:1;fill-rule:evenodd;stroke:#000000;stroke-width:1.88976;stroke-miterlimit:4;stroke-dasharray:none;stroke-opacity:1" />
      <path
         id="nub"
         style="fill:none;fill-opacity:1;fill-rule:evenodd;stroke:#000000;stroke-width:1.88976;stroke-miterlimit:4;stroke-dasharray:none;stroke-opacity:1"
         d="m 185.5,104.5 h 12 c 0.554,0 1,0.223 1,0.5 0,0.277 -0.446,0.5 -1,0.5 h -12 c -0.554,0 -1,-0.223 -1,-0.5 0,-0.277 0.446,-0.5 1,-0.5 z" />
      <path
         id="use33978"
         style="fill:none;fill-opacity:1;fill-rule:evenodd;stroke:#000000;stroke-width:1.88976;stroke-miterlimit:4;stroke-dasharray:none;stroke-opacity:1"
         d="m 293.5,104.5 h 12 c 0.554,0 1,0.223 1,0.5 0,0.277 -0.446,0.5 -1,0.5 h -12 c -0.554,0 -1,-0.223 -1,-0.5 0,-0.277 0.446,-0.5 1,-0.5 z" />
    </g>
  </g>
</svg>
